<?xml version="1.0" encoding="utf-8"?>
<!-- Generator: Adobe Illustrator 15.1.0, SVG Export Plug-In . SVG Version: 6.00 Build 0)  -->
<!DOCTYPE svg PUBLIC "-//W3C//DTD SVG 1.1//EN" "http://www.w3.org/Graphics/SVG/1.1/DTD/svg11.dtd">
<svg version="1.1" id="Layer_1" xmlns="http://www.w3.org/2000/svg" xmlns:xlink="http://www.w3.org/1999/xlink" x="0px" y="0px"
	 width="610.504px" height="564.604px" viewBox="-0.299 111.673 610.504 564.604"
	 enable-background="new -0.299 111.673 610.504 564.604" xml:space="preserve">
<path fill="#FCE5CD" d="M13.729,112.842h547.526v432.053H13.729V112.842z"/>
<path fill="#DAE3F3" fill-opacity="0.2923" d="M9.724,546.537h555.087V664.1H9.724V546.537z"/>
<path fill="none" stroke="#000000" stroke-width="2" stroke-linejoin="round" stroke-miterlimit="10" stroke-dasharray="8,6,2,6" d="
	M564.821,666.467V111.673"/>
<path fill="none" stroke="#000000" stroke-width="4" stroke-linejoin="round" stroke-miterlimit="10" d="M9.909,666.068V137.847"/>
<path stroke="#000000" stroke-width="4" stroke-miterlimit="10" d="M17.261,137.847l-7.352-20.199l-7.352,20.199H17.261z"/>
<path fill="none" stroke="#000000" stroke-width="4" stroke-linejoin="round" stroke-miterlimit="10" d="M7.678,666.068h576.48"/>
<path stroke="#000000" stroke-width="4" stroke-miterlimit="10" d="M584.158,673.42l20.199-7.352l-20.199-7.352V673.42z"/>
<path d="M68.396,531.074H15.038v-7.059h47.064v-26.289h6.294V531.074z M63.632,465.136c2.063,2.434,3.518,4.772,4.364,7.015
	c0.846,2.243,1.27,4.651,1.27,7.225c0,4.242-1.038,7.505-3.112,9.788c-2.075,2.284-4.723,3.426-7.946,3.426
	c-1.901,0-3.633-0.432-5.198-1.296c-1.565-0.863-2.819-1.99-3.764-3.381c-0.945-1.392-1.661-2.962-2.147-4.712
	c-0.336-1.287-0.661-3.229-0.974-5.825c-0.637-5.297-1.391-9.191-2.26-11.684c-0.904-0.022-1.478-0.034-1.721-0.034
	c-2.666,0-4.543,0.614-5.633,1.843c-1.484,1.681-2.226,4.173-2.226,7.477c0,3.083,0.539,5.357,1.617,6.824
	c1.078,1.466,2.991,2.553,5.738,3.26l-0.87,6.397c-2.747-0.579-4.964-1.535-6.65-2.868c-1.687-1.333-2.985-3.263-3.895-5.79
	c-0.91-2.526-1.365-5.453-1.365-8.78c0-3.303,0.389-5.983,1.165-8.041c0.777-2.058,1.753-3.572,2.93-4.546
	c1.176-0.974,2.663-1.652,4.459-2.034c1.125-0.221,3.141-0.331,6.05-0.331h8.728c6.097,0,9.951-0.139,11.562-0.417
	c1.611-0.278,3.159-0.835,4.642-1.669v6.85C67.04,464.516,65.452,464.95,63.632,465.136z M48.993,465.691
	c0.974,2.377,1.796,5.94,2.469,10.693c0.394,2.7,0.834,4.607,1.321,5.72s1.197,1.974,2.13,2.582s1.967,0.913,3.104,0.913
	c1.75,0,3.208-0.661,4.373-1.982s1.748-3.257,1.748-5.807c0-2.527-0.554-4.773-1.661-6.737c-1.107-1.965-2.617-3.411-4.529-4.338
	c-1.483-0.695-3.668-1.044-6.555-1.044H48.993z M62.537,434.805l5.79-0.939c0.382,1.843,0.574,3.495,0.574,4.955
	c0,2.376-0.377,4.219-1.13,5.529c-0.753,1.31-1.741,2.23-2.964,2.764c-1.223,0.533-3.799,0.8-7.728,0.8H34.84v4.816h-5.111v-4.816
	h-9.562l-3.93-6.52h13.492v-6.589h5.111v6.589h22.603c1.866,0,3.065-0.113,3.599-0.339c0.533-0.227,0.959-0.6,1.278-1.121
	c0.318-0.522,0.478-1.27,0.478-2.243C62.798,436.96,62.711,435.998,62.537,434.805z M68.396,426.663h-7.458v-7.476h7.458V426.663z"
	/>
<path d="M20.607,658.934v-53.358h35.99v6.293H27.666v16.518h25.037v6.312H27.666v24.236H20.607z M64.557,658.934v-53.358h6.555
	v53.358H64.557z M78.74,639.6c0-7.151,1.994-12.454,5.981-15.908c3.326-2.863,7.377-4.295,12.153-4.295
	c5.32,0,9.667,1.742,13.04,5.225c3.373,3.483,5.059,8.297,5.059,14.439c0,4.973-0.748,8.885-2.243,11.736s-3.668,5.065-6.52,6.642
	c-2.851,1.576-5.963,2.364-9.336,2.364c-5.413,0-9.789-1.735-13.126-5.207C80.409,651.124,78.74,646.126,78.74,639.6z M85.486,639.6
	c0,4.949,1.078,8.656,3.234,11.119c2.156,2.463,4.874,3.694,8.154,3.694c3.257,0,5.963-1.237,8.12-3.712
	c2.156-2.475,3.234-6.245,3.234-11.31c0-4.787-1.084-8.412-3.251-10.876c-2.167-2.463-4.868-3.694-8.102-3.694
	c-3.28,0-5.998,1.226-8.154,3.678C86.564,630.95,85.486,634.65,85.486,639.6z M129.57,658.934l-11.823-38.667h6.763l6.155,22.323
	l2.295,8.294c0.093-0.406,0.759-3.061,1.999-7.963l6.155-22.654h6.729l5.79,22.428l1.93,7.39l2.226-7.459l6.624-22.358h6.363
	l-12.083,38.667h-6.798l-6.155-23.159l-1.495-6.589l-7.824,29.748H129.57z"/>
<path fill="none" stroke="#000000" stroke-width="4" stroke-linejoin="round" stroke-miterlimit="10" stroke-dasharray="32,12" d="
	M12.004,548.756h545.464"/>
<path fill="#1C4587" d="M201.589,618.969V565.61h36.581v9.023h-25.801v12.622h22.272v9.041h-22.272v22.672H201.589z
	 M256.544,618.969h-10.223v-38.667h9.493v5.511c1.623-2.596,3.083-4.309,4.381-5.137c1.298-0.829,2.776-1.243,4.434-1.243
	c2.33,0,4.572,0.643,6.729,1.93l-3.165,8.919c-1.727-1.112-3.327-1.669-4.799-1.669c-1.437,0-2.654,0.394-3.651,1.183
	c-0.997,0.788-1.779,2.214-2.347,4.276c-0.568,2.063-0.852,6.381-0.852,12.953V618.969z M297.997,606.659l10.206,1.722
	c-1.31,3.731-3.379,6.574-6.207,8.527s-6.369,2.93-10.623,2.93c-6.723,0-11.695-2.196-14.917-6.589
	c-2.55-3.513-3.825-7.952-3.825-13.318c0-6.41,1.675-11.429,5.024-15.057s7.586-5.441,12.709-5.441c5.749,0,10.287,1.9,13.613,5.702
	c3.327,3.802,4.915,9.621,4.764,17.456h-25.627c0.069,3.037,0.895,5.398,2.478,7.085c1.582,1.687,3.55,2.529,5.902,2.529
	c1.6,0,2.944-0.438,4.034-1.312C296.617,610.018,297.44,608.606,297.997,606.659z M298.587,596.332
	c-0.069-2.968-0.834-5.222-2.295-6.764c-1.46-1.541-3.234-2.312-5.32-2.312c-2.225,0-4.068,0.817-5.529,2.451
	c-1.46,1.623-2.173,3.831-2.139,6.625H298.587z M339.246,606.659l10.206,1.722c-1.31,3.731-3.379,6.574-6.207,8.527
	s-6.369,2.93-10.623,2.93c-6.723,0-11.695-2.196-14.917-6.589c-2.551-3.513-3.825-7.952-3.825-13.318
	c0-6.41,1.675-11.429,5.024-15.057s7.586-5.441,12.709-5.441c5.75,0,10.287,1.9,13.614,5.702c3.326,3.802,4.914,9.621,4.764,17.456
	h-25.628c0.07,3.037,0.896,5.398,2.478,7.085s3.55,2.529,5.903,2.529c1.6,0,2.943-0.438,4.033-1.312
	S338.689,608.606,339.246,606.659z M339.838,596.332c-0.07-2.968-0.835-5.222-2.296-6.764c-1.46-1.541-3.233-2.312-5.319-2.312
	c-2.226,0-4.068,0.817-5.529,2.451c-1.461,1.623-2.173,3.831-2.139,6.625H339.838z M378.866,618.969V565.61h36.581v9.023h-25.802
	v12.622h22.271v9.041h-22.271v22.672H378.866z M424.033,618.969V565.61h10.223v53.358H424.033z M442.275,599.096
	c0-3.396,0.837-6.685,2.513-9.866c1.675-3.182,4.045-5.61,7.11-7.285c3.066-1.675,6.494-2.512,10.284-2.512
	c5.854,0,10.646,1.9,14.379,5.702s5.598,8.601,5.598,14.396c0,5.853-1.886,10.701-5.659,14.543
	c-3.772,3.843-8.521,5.764-14.248,5.764c-3.547,0-6.925-0.8-10.136-2.399s-5.653-3.946-7.328-7.041
	C443.112,607.303,442.275,603.535,442.275,599.096z M452.76,599.635c0,3.837,0.909,6.775,2.729,8.815
	c1.819,2.04,4.062,3.06,6.729,3.06s4.902-1.02,6.711-3.06c1.808-2.04,2.712-5.002,2.712-8.885c0-3.79-0.904-6.702-2.712-8.736
	c-1.809-2.034-4.045-3.052-6.711-3.052s-4.909,1.018-6.729,3.052C453.669,592.863,452.76,595.799,452.76,599.635z M497.144,618.969
	l-12.223-38.667h9.928l7.25,25.349l6.659-25.349h9.876l6.433,25.349l7.39-25.349h10.084l-12.414,38.667h-9.823l-6.659-24.862
	l-6.555,24.862H497.144z"/>
<path fill="#783F04" d="M197.074,178.866l10.449,3.321c-1.6,5.819-4.263,10.142-7.989,12.97c-3.727,2.829-8.453,4.243-14.179,4.243
	c-7.093,0-12.921-2.42-17.482-7.259c-4.561-4.839-6.841-11.461-6.841-19.864c0-8.878,2.295-15.775,6.885-20.689
	c4.59-4.915,10.618-7.372,18.082-7.372c6.537,0,11.84,1.93,15.909,5.79c2.434,2.284,4.253,5.558,5.459,9.823l-10.658,2.556
	c-0.626-2.771-1.941-4.955-3.947-6.555s-4.439-2.399-7.302-2.399c-3.953,0-7.16,1.42-9.624,4.26
	c-2.463,2.84-3.694,7.436-3.694,13.787c0,6.746,1.211,11.553,3.634,14.422c2.422,2.869,5.575,4.303,9.458,4.303
	c2.875,0,5.341-0.91,7.398-2.729C194.689,185.652,196.17,182.784,197.074,178.866z M214.057,178.623
	c0-3.396,0.837-6.685,2.512-9.867s4.045-5.61,7.111-7.285c3.066-1.675,6.494-2.512,10.284-2.512c5.854,0,10.646,1.901,14.378,5.703
	c3.732,3.802,5.599,8.601,5.599,14.396c0,5.854-1.886,10.701-5.659,14.543c-3.773,3.843-8.522,5.764-14.248,5.764
	c-3.547,0-6.926-0.8-10.136-2.399c-3.211-1.599-5.654-3.946-7.329-7.041S214.057,183.062,214.057,178.623z M224.541,179.162
	c0,3.836,0.91,6.775,2.729,8.815s4.063,3.06,6.729,3.06c2.666,0,4.903-1.02,6.711-3.06s2.712-5.001,2.712-8.885
	c0-3.79-0.904-6.702-2.712-8.736s-4.045-3.052-6.711-3.052c-2.666,0-4.909,1.018-6.729,3.052S224.541,175.325,224.541,179.162z
	 M296.882,198.495h-10.223v-19.733c0-4.173-0.217-6.871-0.652-8.094c-0.435-1.223-1.145-2.176-2.13-2.86
	c-0.985-0.684-2.167-1.026-3.547-1.026c-1.773,0-3.364,0.487-4.772,1.46s-2.374,2.26-2.895,3.86s-0.782,4.561-0.782,8.885v17.508
	h-10.223v-38.667h9.493v5.686c3.373-4.37,7.621-6.555,12.745-6.555c2.26,0,4.323,0.406,6.189,1.217
	c1.866,0.811,3.277,1.849,4.233,3.112c0.957,1.264,1.623,2.698,2,4.303s0.565,3.897,0.565,6.876V198.495z M306.077,201.051
	l11.684,1.408c0.197,1.356,0.649,2.29,1.356,2.799c0.974,0.73,2.503,1.095,4.59,1.095c2.666,0,4.665-0.399,5.998-1.199
	c0.904-0.533,1.582-1.391,2.034-2.573c0.324-0.858,0.487-2.429,0.487-4.712v-5.633c-3.061,4.173-6.92,6.259-11.58,6.259
	c-5.192,0-9.307-2.196-12.344-6.589c-2.376-3.466-3.564-7.783-3.564-12.953c0-6.479,1.559-11.431,4.677-14.856
	s6.995-5.138,11.632-5.138c4.775,0,8.716,2.098,11.822,6.294v-5.425h9.58v34.704c0,4.555-0.377,7.963-1.13,10.223
	c-0.754,2.26-1.809,4.034-3.164,5.32c-1.356,1.287-3.171,2.292-5.442,3.017c-2.271,0.725-5.141,1.087-8.606,1.087
	c-6.561,0-11.211-1.122-13.952-3.364c-2.741-2.243-4.112-5.085-4.112-8.528C306.042,201.938,306.054,201.526,306.077,201.051z
	 M315.223,178.362c0,4.103,0.794,7.108,2.382,9.015s3.547,2.86,5.876,2.86c2.504,0,4.616-0.976,6.338-2.929
	c1.721-1.953,2.582-4.848,2.582-8.685c0-4.01-0.826-6.986-2.478-8.928c-1.652-1.941-3.735-2.912-6.251-2.912
	c-2.457,0-4.479,0.954-6.067,2.86S315.223,174.456,315.223,178.362z M374.716,186.186l10.206,1.721
	c-1.311,3.732-3.379,6.575-6.207,8.528c-2.828,1.953-6.369,2.93-10.623,2.93c-6.723,0-11.695-2.196-14.918-6.589
	c-2.55-3.512-3.825-7.951-3.825-13.318c0-6.41,1.675-11.429,5.025-15.057c3.35-3.628,7.586-5.442,12.709-5.442
	c5.749,0,10.287,1.901,13.613,5.703c3.327,3.802,4.915,9.621,4.765,17.456h-25.628c0.069,3.037,0.896,5.398,2.478,7.085
	s3.55,2.53,5.902,2.53c1.6,0,2.944-0.438,4.034-1.313C373.336,189.544,374.159,188.133,374.716,186.186z M375.307,175.858
	c-0.069-2.967-0.834-5.222-2.295-6.763c-1.46-1.542-3.233-2.312-5.32-2.312c-2.226,0-4.068,0.817-5.528,2.452
	c-1.461,1.623-2.174,3.831-2.139,6.624H375.307z M389.99,187.472l10.258-1.565c0.44,1.982,1.327,3.489,2.66,4.521
	c1.333,1.032,3.199,1.547,5.599,1.547c2.643,0,4.637-0.487,5.981-1.46c0.892-0.672,1.338-1.582,1.338-2.729
	c0-0.776-0.243-1.42-0.729-1.93c-0.511-0.476-1.652-0.922-3.426-1.339c-8.241-1.82-13.469-3.483-15.683-4.99
	c-3.06-2.086-4.59-4.984-4.59-8.693c0-3.35,1.324-6.167,3.973-8.45c2.649-2.284,6.749-3.425,12.302-3.425
	c5.297,0,9.229,0.861,11.796,2.582s4.338,4.274,5.312,7.659l-9.649,1.773c-0.405-1.507-1.185-2.66-2.338-3.46s-2.797-1.2-4.93-1.2
	c-2.7,0-4.63,0.376-5.789,1.13c-0.776,0.533-1.165,1.223-1.165,2.069c0,0.73,0.336,1.35,1.009,1.86
	c0.927,0.684,4.114,1.643,9.562,2.877c5.447,1.234,9.249,2.75,11.405,4.546c2.144,1.82,3.216,4.358,3.216,7.615
	c0,3.547-1.48,6.592-4.441,9.136c-2.962,2.544-7.346,3.816-13.153,3.816c-5.262,0-9.429-1.066-12.501-3.199
	C392.935,194.033,390.93,191.135,389.99,187.472z M452.556,159.828v8.154h-6.989v15.596c0,3.153,0.067,4.99,0.2,5.511
	c0.134,0.522,0.438,0.951,0.913,1.287c0.475,0.336,1.055,0.504,1.738,0.504c0.939,0,2.307-0.325,4.104-0.974l0.887,7.928
	c-2.388,1.02-5.083,1.53-8.085,1.53c-1.843,0-3.506-0.31-4.99-0.93c-1.483-0.62-2.569-1.419-3.26-2.399
	c-0.689-0.979-1.167-2.31-1.435-3.99c-0.22-1.183-0.33-3.582-0.33-7.198v-16.865h-4.694v-8.154h4.694v-7.667l10.258-5.981v13.648
	H452.556z M459.539,154.595v-9.458h10.223v9.458H459.539z M459.539,198.495v-38.667h10.223v38.667H459.539z M477.781,178.623
	c0-3.396,0.837-6.685,2.512-9.867s4.046-5.61,7.111-7.285s6.494-2.512,10.284-2.512c5.854,0,10.646,1.901,14.378,5.703
	c3.732,3.802,5.599,8.601,5.599,14.396c0,5.854-1.886,10.701-5.659,14.543c-3.772,3.843-8.522,5.764-14.248,5.764
	c-3.547,0-6.926-0.8-10.136-2.399c-3.211-1.599-5.654-3.946-7.329-7.041S477.781,183.062,477.781,178.623z M488.265,179.162
	c0,3.836,0.91,6.775,2.729,8.815c1.82,2.04,4.063,3.06,6.729,3.06c2.666,0,4.903-1.02,6.712-3.06
	c1.808-2.04,2.712-5.001,2.712-8.885c0-3.79-0.904-6.702-2.712-8.736c-1.809-2.034-4.046-3.052-6.712-3.052
	c-2.665,0-4.908,1.018-6.729,3.052C489.175,172.39,488.265,175.325,488.265,179.162z M560.606,198.495h-10.223v-19.733
	c0-4.173-0.218-6.871-0.652-8.094c-0.435-1.223-1.145-2.176-2.13-2.86c-0.985-0.684-2.167-1.026-3.547-1.026
	c-1.773,0-3.364,0.487-4.772,1.46s-2.373,2.26-2.895,3.86s-0.782,4.561-0.782,8.885v17.508h-10.224v-38.667h9.493v5.686
	c3.373-4.37,7.621-6.555,12.744-6.555c2.261,0,4.323,0.406,6.189,1.217c1.866,0.811,3.277,1.849,4.233,3.112
	c0.957,1.264,1.623,2.698,2,4.303s0.564,3.897,0.564,6.876V198.495z"/>
<path fill="none" stroke="#000000" stroke-width="4" stroke-linejoin="round" stroke-miterlimit="10" stroke-dasharray="4,12" d="
	M558.852,548.528c-58.73-7.312-272.168-21.938-352.378-43.875c-80.21-21.938-97.805-37.934-128.884-87.751
	S30.057,249.626,20.002,205.75c-2.514-10.969-3.913-19.167-4.606-25.43l-0.003-0.032"/>
<path stroke="#000000" stroke-width="4" stroke-miterlimit="10" d="M22.726,180.802l-5.921-20.664l-8.746,19.635L22.726,180.802z"/>
<path fill="none" stroke="#000000" stroke-width="4" stroke-linejoin="round" stroke-miterlimit="10" stroke-dasharray="32,12,4,12" d="
	M562.965,549.901c-8.912-36.106,1.144-164.992-53.473-216.638s-202.697-66.955-274.225-93.235
	c-71.527-26.28-124.087-47.534-154.938-64.445c-7.713-4.228-13.14-8.27-17.021-12.051c-0.243-0.236-0.479-0.472-0.71-0.706
	c-0.115-0.117-0.229-0.234-0.342-0.351l-0.065-0.069"/>
<path stroke="#000000" stroke-width="4" stroke-miterlimit="10" d="M68.756,159.097l-15.66-14.724l2.531,21.345L68.756,159.097z"/>
<path fill="none" stroke="#000000" stroke-width="4" stroke-linejoin="round" stroke-miterlimit="10" stroke-dasharray="32,12" d="
	M560.222,548.528L281.882,419.627"/>
<path fill="none" stroke="#000000" stroke-width="4" stroke-linejoin="round" stroke-miterlimit="10" stroke-dasharray="32,12" d="
	M281.885,419.645L66.629,198.887"/>
<path fill="none" stroke="#000000" stroke-width="4" stroke-linejoin="round" stroke-miterlimit="10" stroke-dasharray="32,12" d="
	M66.621,198.893l-11.803-28.774"/>
<path stroke="#000000" stroke-width="4" stroke-miterlimit="10" d="M61.619,167.329l-14.467-15.897l0.864,21.478L61.619,167.329z"/>
</svg>
